<?xml version="1.0" encoding="UTF-8" standalone="no"?>
<!DOCTYPE svg PUBLIC "-//W3C//DTD SVG 1.1//EN"
 "http://www.w3.org/Graphics/SVG/1.1/DTD/svg11.dtd">
<!-- Generated by graphviz version 2.38.0 (20140413.2041)
 -->
<!-- Title: %3 Pages: 1 -->
<svg width="1609pt" height="2674pt"
 viewBox="0.00 0.00 1608.59 2674.00" xmlns="http://www.w3.org/2000/svg" xmlns:xlink="http://www.w3.org/1999/xlink">
<g id="graph0" class="graph" transform="scale(1 1) rotate(0) translate(4 2670)">
<title>%3</title>
<polygon fill="white" stroke="none" points="-4,4 -4,-2670 1604.59,-2670 1604.59,4 -4,4"/>
<!-- unhappy -->
<g id="node1" class="node"><title>unhappy</title>
<path fill="none" stroke="black" d="M488.046,-2666C488.046,-2666 311.082,-2666 311.082,-2666 305.082,-2666 299.082,-2660 299.082,-2654 299.082,-2654 299.082,-2642 299.082,-2642 299.082,-2636 305.082,-2630 311.082,-2630 311.082,-2630 488.046,-2630 488.046,-2630 494.046,-2630 500.046,-2636 500.046,-2642 500.046,-2642 500.046,-2654 500.046,-2654 500.046,-2660 494.046,-2666 488.046,-2666"/>
<text text-anchor="middle" x="399.564" y="-2643.8" font-family="Times,serif" font-size="14.00">React làm bạn thấy buồn phiền?</text>
</g>
<!-- are_you_using_react_boilerplates -->
<g id="node2" class="node"><title>are_you_using_react_boilerplates</title>
<polygon fill="none" stroke="black" points="399.564,-2593 254.187,-2529 399.564,-2465 544.941,-2529 399.564,-2593"/>
<text text-anchor="middle" x="399.564" y="-2545.8" font-family="Times,serif" font-size="14.00">Có phải bạn đang</text>
<text text-anchor="middle" x="399.564" y="-2531.8" font-family="Times,serif" font-size="14.00"> &#160;&#160;&#160;học React bằng cách</text>
<text text-anchor="middle" x="399.564" y="-2517.8" font-family="Times,serif" font-size="14.00"> &#160;&#160;&#160;sao chép các project</text>
<text text-anchor="middle" x="399.564" y="-2503.8" font-family="Times,serif" font-size="14.00"> &#160;&#160;&#160;mẫu cơ bản?</text>
</g>
<!-- unhappy&#45;&gt;are_you_using_react_boilerplates -->
<g id="edge1" class="edge"><title>unhappy&#45;&gt;are_you_using_react_boilerplates</title>
<path fill="none" stroke="black" d="M399.564,-2629.99C399.564,-2622.52 399.564,-2613.21 399.564,-2603.28"/>
<polygon fill="black" stroke="black" points="403.064,-2603.2 399.564,-2593.2 396.064,-2603.2 403.064,-2603.2"/>
</g>
<!-- boilerplates_dont_teach -->
<g id="node3" class="node"><title>boilerplates_dont_teach</title>
<polygon fill="none" stroke="black" points="395.192,-2415 -0.0639856,-2415 -0.0639856,-2169 395.192,-2169 395.192,-2415"/>
<text text-anchor="middle" x="197.564" y="-2399.8" font-family="Times,serif" font-size="14.00">Học React bằng cách sao chép các</text>
<text text-anchor="middle" x="197.564" y="-2385.8" font-family="Times,serif" font-size="14.00"> &#160;&#160;&#160;boilerplate giống như học nấu ăn bằng cách</text>
<text text-anchor="middle" x="197.564" y="-2371.8" font-family="Times,serif" font-size="14.00"> &#160;&#160;&#160;đi ăn ở các nhà hàng xa hoa. Điều này</text>
<text text-anchor="middle" x="197.564" y="-2357.8" font-family="Times,serif" font-size="14.00"> &#160;&#160;&#160;không hiệu quả. Bạn cần phải bắt đầu từ</text>
<text text-anchor="middle" x="197.564" y="-2343.8" font-family="Times,serif" font-size="14.00"> &#160;&#160;&#160;cơ bản và bỏ qua nỗi sợ của sự thiếu sót.</text>
<text text-anchor="middle" x="197.564" y="-2329.8" font-family="Times,serif" font-size="14.00"> &#160;&#160;&#160;Như thế là không có nền tảng. Mọi người tạo</text>
<text text-anchor="middle" x="197.564" y="-2315.8" font-family="Times,serif" font-size="14.00"> &#160;&#160;&#160;các boilerplate để thể hiện những gì họ làm được</text>
<text text-anchor="middle" x="197.564" y="-2301.8" font-family="Times,serif" font-size="14.00"> &#160;&#160;&#160;hay học được, chứ không phải để giúp bạn</text>
<text text-anchor="middle" x="197.564" y="-2287.8" font-family="Times,serif" font-size="14.00"> &#160;&#160;&#160;học. Chúng được tạo và dành cho các</text>
<text text-anchor="middle" x="197.564" y="-2273.8" font-family="Times,serif" font-size="14.00"> &#160;&#160;&#160;power users, và thường mang tính chất</text>
<text text-anchor="middle" x="197.564" y="-2259.8" font-family="Times,serif" font-size="14.00"> &#160;&#160;&#160;thử nghiệm hơn là quan tâm để sử dụng. Các</text>
<text text-anchor="middle" x="197.564" y="-2245.8" font-family="Times,serif" font-size="14.00"> &#160;&#160;&#160;boilerplat dành được sự quan tâm thường hay bị</text>
<text text-anchor="middle" x="197.564" y="-2231.8" font-family="Times,serif" font-size="14.00"> &#160;&#160;&#160;thổi phồng lên. Nếu như bạn thực sự quan tâm</text>
<text text-anchor="middle" x="197.564" y="-2217.8" font-family="Times,serif" font-size="14.00"> &#160;&#160;&#160;tới React, hãy học theo thứ tự mà Pete Hunt</text>
<text text-anchor="middle" x="197.564" y="-2203.8" font-family="Times,serif" font-size="14.00"> &#160;&#160;&#160;mô tả trong hướng dẫn: https://github.com/petehunt/react&#45;howto.</text>
<text text-anchor="middle" x="197.564" y="-2189.8" font-family="Times,serif" font-size="14.00"> &#160;&#160;&#160;Chẳng mấy chốc bạn sẽ tạo được mẫu boilerplate</text>
<text text-anchor="middle" x="197.564" y="-2175.8" font-family="Times,serif" font-size="14.00"> &#160;&#160;&#160;của riêng bạn.</text>
</g>
<!-- are_you_using_react_boilerplates&#45;&gt;boilerplates_dont_teach -->
<g id="edge2" class="edge"><title>are_you_using_react_boilerplates&#45;&gt;boilerplates_dont_teach</title>
<path fill="none" stroke="black" d="M360.137,-2482.13C345.309,-2464.88 327.619,-2444.3 309.453,-2423.17"/>
<polygon fill="black" stroke="black" points="311.916,-2420.66 302.744,-2415.36 306.608,-2425.23 311.916,-2420.66"/>
<text text-anchor="middle" x="335.171" y="-2435.8" font-family="Times,serif" font-size="14.00">có</text>
</g>
<!-- steal_from_boilerplates -->
<g id="node4" class="node"><title>steal_from_boilerplates</title>
<polygon fill="none" stroke="black" points="793.946,-2366 413.182,-2366 413.182,-2218 793.946,-2218 793.946,-2366"/>
<text text-anchor="middle" x="603.564" y="-2350.8" font-family="Times,serif" font-size="14.00">Mặc dù boilerplates không tốt cho việc</text>
<text text-anchor="middle" x="603.564" y="-2336.8" font-family="Times,serif" font-size="14.00"> &#160;&#160;&#160;học các kĩ thuật tổng hợp, chúng lại khá tiện</text>
<text text-anchor="middle" x="603.564" y="-2322.8" font-family="Times,serif" font-size="14.00"> &#160;&#160;&#160;khi cho thấy cách mà các kĩ thuật này được</text>
<text text-anchor="middle" x="603.564" y="-2308.8" font-family="Times,serif" font-size="14.00"> &#160;&#160;&#160;phối hợp nhau *sau khi* mà bạn cảm thấy thoải</text>
<text text-anchor="middle" x="603.564" y="-2294.8" font-family="Times,serif" font-size="14.00"> &#160;&#160;&#160;mái với mỗi loại một cách độc lập. Đây là một</text>
<text text-anchor="middle" x="603.564" y="-2280.8" font-family="Times,serif" font-size="14.00"> &#160;&#160;&#160;cách hữu hiệu trong việc tìm hiểu công nghệ</text>
<text text-anchor="middle" x="603.564" y="-2266.8" font-family="Times,serif" font-size="14.00"> &#160;&#160;&#160;mới nhưng bạn không nên quá gò bó khi sử dụng</text>
<text text-anchor="middle" x="603.564" y="-2252.8" font-family="Times,serif" font-size="14.00"> &#160;&#160;&#160;chúng. Không nên thực sự bỏ qua các boilerplates.</text>
<text text-anchor="middle" x="603.564" y="-2238.8" font-family="Times,serif" font-size="14.00"> &#160;&#160;&#160;Chỉ nên nhớ rằng mỗi boilerplate là một nhóm các</text>
<text text-anchor="middle" x="603.564" y="-2224.8" font-family="Times,serif" font-size="14.00"> &#160;&#160;&#160;kĩ thuật, không phải nên móng để xây dựng ứng dụng của bạn.</text>
</g>
<!-- are_you_using_react_boilerplates&#45;&gt;steal_from_boilerplates -->
<g id="edge3" class="edge"><title>are_you_using_react_boilerplates&#45;&gt;steal_from_boilerplates</title>
<path fill="none" stroke="black" d="M439.139,-2482.41C465.858,-2451.63 501.862,-2410.16 533.368,-2373.86"/>
<polygon fill="black" stroke="black" points="536.106,-2376.05 540.018,-2366.2 530.82,-2371.46 536.106,-2376.05"/>
<text text-anchor="middle" x="495.064" y="-2435.8" font-family="Times,serif" font-size="14.00">không</text>
</g>
<!-- are_you_using_flux -->
<g id="node5" class="node"><title>are_you_using_flux</title>
<polygon fill="none" stroke="black" points="447.564,-2132 316.945,-2082 447.564,-2032 578.183,-2082 447.564,-2132"/>
<text text-anchor="middle" x="447.564" y="-2091.8" font-family="Times,serif" font-size="14.00">Bạn đang sử dụng</text>
<text text-anchor="middle" x="447.564" y="-2077.8" font-family="Times,serif" font-size="14.00"> &#160;&#160;&#160;một thư viện Flux</text>
<text text-anchor="middle" x="447.564" y="-2063.8" font-family="Times,serif" font-size="14.00"> &#160;&#160;&#160;(hay Redux)?</text>
</g>
<!-- boilerplates_dont_teach&#45;&gt;are_you_using_flux -->
<g id="edge4" class="edge"><title>boilerplates_dont_teach&#45;&gt;are_you_using_flux</title>
<path fill="none" stroke="black" d="M344.436,-2168.8C364.165,-2152.39 383.144,-2136.6 399.324,-2123.14"/>
<polygon fill="black" stroke="black" points="401.584,-2125.81 407.032,-2116.72 397.107,-2120.43 401.584,-2125.81"/>
</g>
<!-- steal_from_boilerplates&#45;&gt;are_you_using_flux -->
<g id="edge5" class="edge"><title>steal_from_boilerplates&#45;&gt;are_you_using_flux</title>
<path fill="none" stroke="black" d="M548.784,-2217.96C526.681,-2188.49 501.842,-2155.37 482.302,-2129.32"/>
<polygon fill="black" stroke="black" points="484.954,-2127.02 476.154,-2121.12 479.354,-2131.22 484.954,-2127.02"/>
</g>
<!-- is_too_much_flux -->
<g id="node6" class="node"><title>is_too_much_flux</title>
<polygon fill="none" stroke="black" points="311.564,-1982 98.5871,-1932 311.564,-1882 524.541,-1932 311.564,-1982"/>
<text text-anchor="middle" x="311.564" y="-1941.8" font-family="Times,serif" font-size="14.00">Cái đó có thêm nhiều</text>
<text text-anchor="middle" x="311.564" y="-1927.8" font-family="Times,serif" font-size="14.00"> &#160;&#160;&#160;phần vào trong boilerplate</text>
<text text-anchor="middle" x="311.564" y="-1913.8" font-family="Times,serif" font-size="14.00"> &#160;&#160;&#160;mà không có tác dụng gì không?</text>
</g>
<!-- are_you_using_flux&#45;&gt;is_too_much_flux -->
<g id="edge6" class="edge"><title>are_you_using_flux&#45;&gt;is_too_much_flux</title>
<path fill="none" stroke="black" d="M413.946,-2044.42C396.292,-2025.2 374.442,-2001.43 355.467,-1980.78"/>
<polygon fill="black" stroke="black" points="357.963,-1978.32 348.62,-1973.33 352.809,-1983.06 357.963,-1978.32"/>
<text text-anchor="middle" x="398.564" y="-2002.8" font-family="Times,serif" font-size="14.00">đúng</text>
</g>
<!-- is_not_enough_flux -->
<g id="node7" class="node"><title>is_not_enough_flux</title>
<polygon fill="none" stroke="black" points="806.564,-1982 541.955,-1932 806.564,-1882 1071.17,-1932 806.564,-1982"/>
<text text-anchor="middle" x="806.564" y="-1941.8" font-family="Times,serif" font-size="14.00">Bạn có vài stateful components</text>
<text text-anchor="middle" x="806.564" y="-1927.8" font-family="Times,serif" font-size="14.00"> &#160;&#160;&#160;ở cấp bậc đầu của component mà thường</text>
<text text-anchor="middle" x="806.564" y="-1913.8" font-family="Times,serif" font-size="14.00"> &#160;&#160;&#160;là nguyên nhân của các lỗi?</text>
</g>
<!-- are_you_using_flux&#45;&gt;is_not_enough_flux -->
<g id="edge7" class="edge"><title>are_you_using_flux&#45;&gt;is_not_enough_flux</title>
<path fill="none" stroke="black" d="M509.278,-2055.56C566.028,-2032.16 650.901,-1997.17 715.452,-1970.56"/>
<polygon fill="black" stroke="black" points="716.911,-1973.75 724.822,-1966.7 714.243,-1967.27 716.911,-1973.75"/>
<text text-anchor="middle" x="656.064" y="-2002.8" font-family="Times,serif" font-size="14.00">không</text>
</g>
<!-- remove_flux -->
<g id="node8" class="node"><title>remove_flux</title>
<polygon fill="none" stroke="black" points="500.055,-1832 209.073,-1832 209.073,-1768 500.055,-1768 500.055,-1832"/>
<text text-anchor="middle" x="354.564" y="-1816.8" font-family="Times,serif" font-size="14.00">Hãy loại bỏ thư viện Flux. Hãy</text>
<text text-anchor="middle" x="354.564" y="-1802.8" font-family="Times,serif" font-size="14.00"> &#160;&#160;&#160;tập làm quen với cấu trúc ứng dụng với</text>
<text text-anchor="middle" x="354.564" y="-1788.8" font-family="Times,serif" font-size="14.00"> &#160;&#160;&#160;React thuần bằng cách đọc &#39;Thinking in React&#39;</text>
<text text-anchor="middle" x="354.564" y="-1774.8" font-family="Times,serif" font-size="14.00"> &#160;&#160;&#160;trong tài liệu chuẩn.</text>
</g>
<!-- is_too_much_flux&#45;&gt;remove_flux -->
<g id="edge8" class="edge"><title>is_too_much_flux&#45;&gt;remove_flux</title>
<path fill="none" stroke="black" d="M326.724,-1885.17C331.394,-1871.05 336.502,-1855.61 341.053,-1841.85"/>
<polygon fill="black" stroke="black" points="344.437,-1842.76 344.254,-1832.17 337.791,-1840.56 344.437,-1842.76"/>
<text text-anchor="middle" x="345.171" y="-1852.8" font-family="Times,serif" font-size="14.00">có</text>
</g>
<!-- are_you_using_bundler -->
<g id="node9" class="node"><title>are_you_using_bundler</title>
<polygon fill="none" stroke="black" points="575.564,-1731 327.042,-1681 575.564,-1631 824.085,-1681 575.564,-1731"/>
<text text-anchor="middle" x="575.564" y="-1690.8" font-family="Times,serif" font-size="14.00">Bạn có đang sử dụng một</text>
<text text-anchor="middle" x="575.564" y="-1676.8" font-family="Times,serif" font-size="14.00"> &#160;&#160;&#160;công cụ đóng gói Javascript nào không</text>
<text text-anchor="middle" x="575.564" y="-1662.8" font-family="Times,serif" font-size="14.00"> &#160;&#160;&#160;(ví dụ: Webpack, Browserify)?</text>
</g>
<!-- is_too_much_flux&#45;&gt;are_you_using_bundler -->
<g id="edge9" class="edge"><title>is_too_much_flux&#45;&gt;are_you_using_bundler</title>
<path fill="none" stroke="black" d="M398.832,-1902.32C436.429,-1886.43 478.552,-1863.41 508.564,-1832 533.454,-1805.95 550.094,-1769.08 560.566,-1738.42"/>
<polygon fill="black" stroke="black" points="563.962,-1739.29 563.752,-1728.7 557.31,-1737.11 563.962,-1739.29"/>
<text text-anchor="middle" x="566.064" y="-1795.8" font-family="Times,serif" font-size="14.00">không</text>
</g>
<!-- is_not_enough_flux&#45;&gt;are_you_using_bundler -->
<g id="edge11" class="edge"><title>is_not_enough_flux&#45;&gt;are_you_using_bundler</title>
<path fill="none" stroke="black" d="M715.352,-1898.95C682.133,-1883.3 646.821,-1861.37 622.564,-1832 601.094,-1806.01 589.4,-1770.17 583.047,-1740.04"/>
<polygon fill="black" stroke="black" points="586.45,-1739.21 581.091,-1730.07 579.581,-1740.56 586.45,-1739.21"/>
<text text-anchor="middle" x="640.064" y="-1795.8" font-family="Times,serif" font-size="14.00">không</text>
</g>
<!-- add_flux -->
<g id="node10" class="node"><title>add_flux</title>
<polygon fill="none" stroke="black" points="908.377,-1832 666.751,-1832 666.751,-1768 908.377,-1768 908.377,-1832"/>
<text text-anchor="middle" x="787.564" y="-1816.8" font-family="Times,serif" font-size="14.00">Cần quan tâm tới việc thêm</text>
<text text-anchor="middle" x="787.564" y="-1802.8" font-family="Times,serif" font-size="14.00"> &#160;&#160;&#160;một thư viện Flux. Nó có thể hỗ</text>
<text text-anchor="middle" x="787.564" y="-1788.8" font-family="Times,serif" font-size="14.00"> &#160;&#160;&#160;trợ mở rộng state để chia sẻ giữa</text>
<text text-anchor="middle" x="787.564" y="-1774.8" font-family="Times,serif" font-size="14.00"> &#160;&#160;&#160;các components và cập nhật đồng bộ.</text>
</g>
<!-- is_not_enough_flux&#45;&gt;add_flux -->
<g id="edge10" class="edge"><title>is_not_enough_flux&#45;&gt;add_flux</title>
<path fill="none" stroke="black" d="M799.543,-1882.96C797.591,-1869.61 795.489,-1855.23 793.599,-1842.29"/>
<polygon fill="black" stroke="black" points="797.045,-1841.67 792.136,-1832.28 790.119,-1842.68 797.045,-1841.67"/>
<text text-anchor="middle" x="802.171" y="-1852.8" font-family="Times,serif" font-size="14.00">có</text>
</g>
<!-- remove_flux&#45;&gt;are_you_using_bundler -->
<g id="edge13" class="edge"><title>remove_flux&#45;&gt;are_you_using_bundler</title>
<path fill="none" stroke="black" d="M413.208,-1767.95C439.632,-1753.96 471.172,-1737.27 499.395,-1722.33"/>
<polygon fill="black" stroke="black" points="501.23,-1725.31 508.431,-1717.54 497.955,-1719.13 501.23,-1725.31"/>
</g>
<!-- are_you_working_on_production_app_with_bundler -->
<g id="node11" class="node"><title>are_you_working_on_production_app_with_bundler</title>
<polygon fill="none" stroke="black" points="456.564,-1581 244.747,-1545 456.564,-1509 668.38,-1545 456.564,-1581"/>
<text text-anchor="middle" x="456.564" y="-1547.8" font-family="Times,serif" font-size="14.00">Bạn đang phát triển với</text>
<text text-anchor="middle" x="456.564" y="-1533.8" font-family="Times,serif" font-size="14.00"> &#160;&#160;&#160;ứng dụng sản phẩm hoàn chỉnh?</text>
</g>
<!-- are_you_using_bundler&#45;&gt;are_you_working_on_production_app_with_bundler -->
<g id="edge14" class="edge"><title>are_you_using_bundler&#45;&gt;are_you_working_on_production_app_with_bundler</title>
<path fill="none" stroke="black" d="M538.564,-1638.34C523.181,-1621.01 505.444,-1601.04 490.41,-1584.11"/>
<polygon fill="black" stroke="black" points="492.968,-1581.72 483.711,-1576.57 487.734,-1586.37 492.968,-1581.72"/>
<text text-anchor="middle" x="523.171" y="-1601.8" font-family="Times,serif" font-size="14.00">có</text>
</g>
<!-- are_you_working_on_production_app_without_bundler -->
<g id="node12" class="node"><title>are_you_working_on_production_app_without_bundler</title>
<polygon fill="none" stroke="black" points="897.564,-1581 685.747,-1545 897.564,-1509 1109.38,-1545 897.564,-1581"/>
<text text-anchor="middle" x="897.564" y="-1547.8" font-family="Times,serif" font-size="14.00">Bạn đang phát triển với</text>
<text text-anchor="middle" x="897.564" y="-1533.8" font-family="Times,serif" font-size="14.00"> &#160;&#160;&#160;ứng dụng sản phẩm hoàn chỉnh?</text>
</g>
<!-- are_you_using_bundler&#45;&gt;are_you_working_on_production_app_without_bundler -->
<g id="edge15" class="edge"><title>are_you_using_bundler&#45;&gt;are_you_working_on_production_app_without_bundler</title>
<path fill="none" stroke="black" d="M655.159,-1646.88C708.371,-1624.73 777.681,-1595.89 828.552,-1574.72"/>
<polygon fill="black" stroke="black" points="829.94,-1577.93 837.828,-1570.86 827.251,-1571.47 829.94,-1577.93"/>
<text text-anchor="middle" x="783.064" y="-1601.8" font-family="Times,serif" font-size="14.00">không</text>
</g>
<!-- add_flux&#45;&gt;are_you_using_bundler -->
<g id="edge12" class="edge"><title>add_flux&#45;&gt;are_you_using_bundler</title>
<path fill="none" stroke="black" d="M731.308,-1767.95C706.291,-1754.15 676.492,-1737.7 649.691,-1722.91"/>
<polygon fill="black" stroke="black" points="651.174,-1719.73 640.728,-1717.96 647.792,-1725.86 651.174,-1719.73"/>
</g>
<!-- do_you_know_es2015 -->
<g id="node13" class="node"><title>do_you_know_es2015</title>
<polygon fill="none" stroke="black" points="706.564,-1302 464.107,-1252 706.564,-1202 949.021,-1252 706.564,-1302"/>
<text text-anchor="middle" x="706.564" y="-1261.8" font-family="Times,serif" font-size="14.00">Bạn có cảm thấy thoải mái sử dụng</text>
<text text-anchor="middle" x="706.564" y="-1247.8" font-family="Times,serif" font-size="14.00"> &#160;&#160;&#160;các tính năng của ES2015 (ví dụ: lớp,</text>
<text text-anchor="middle" x="706.564" y="-1233.8" font-family="Times,serif" font-size="14.00"> &#160;&#160;&#160;kí hiệu arrows)?</text>
</g>
<!-- are_you_working_on_production_app_with_bundler&#45;&gt;do_you_know_es2015 -->
<g id="edge16" class="edge"><title>are_you_working_on_production_app_with_bundler&#45;&gt;do_you_know_es2015</title>
<path fill="none" stroke="black" d="M428.881,-1513.32C417.014,-1498.13 404.486,-1478.82 398.35,-1459 382.576,-1408.05 366.101,-1381.48 398.35,-1339 419.163,-1311.58 492.048,-1290.56 561.714,-1276.16"/>
<polygon fill="black" stroke="black" points="562.412,-1279.59 571.518,-1274.17 561.021,-1272.73 562.412,-1279.59"/>
<text text-anchor="middle" x="405.171" y="-1394.8" font-family="Times,serif" font-size="14.00">có</text>
</g>
<!-- remove_bundler -->
<g id="node14" class="node"><title>remove_bundler</title>
<polygon fill="none" stroke="black" points="724.282,-1459 420.846,-1459 420.846,-1339 724.282,-1339 724.282,-1459"/>
<text text-anchor="middle" x="572.564" y="-1443.8" font-family="Times,serif" font-size="14.00">Không cần thiết phải sử dụng trình</text>
<text text-anchor="middle" x="572.564" y="-1429.8" font-family="Times,serif" font-size="14.00"> &#160;&#160;&#160;đóng gói nếu bạn mới chỉ đang học React. Copy</text>
<text text-anchor="middle" x="572.564" y="-1415.8" font-family="Times,serif" font-size="14.00"> &#160;&#160;&#160;https://github.com/jarsbe/react&#45;simple và</text>
<text text-anchor="middle" x="572.564" y="-1401.8" font-family="Times,serif" font-size="14.00"> &#160;&#160;&#160;bắt đầu tìm hiểu mà không cần thực hiện quá</text>
<text text-anchor="middle" x="572.564" y="-1387.8" font-family="Times,serif" font-size="14.00"> &#160;&#160;&#160;trình build. Sử dụng thẻ &lt;script&gt; cho tới khi</text>
<text text-anchor="middle" x="572.564" y="-1373.8" font-family="Times,serif" font-size="14.00"> &#160;&#160;&#160;bạn cảm thấy quen với React và muốn học thêm</text>
<text text-anchor="middle" x="572.564" y="-1359.8" font-family="Times,serif" font-size="14.00"> &#160;&#160;&#160;về cơ chế quản lý module và các trình đóng gói</text>
<text text-anchor="middle" x="572.564" y="-1345.8" font-family="Times,serif" font-size="14.00"> &#160;&#160;&#160;khác nhau.</text>
</g>
<!-- are_you_working_on_production_app_with_bundler&#45;&gt;remove_bundler -->
<g id="edge17" class="edge"><title>are_you_working_on_production_app_with_bundler&#45;&gt;remove_bundler</title>
<path fill="none" stroke="black" d="M481.449,-1513.11C492.376,-1499.54 505.661,-1483.05 518.67,-1466.9"/>
<polygon fill="black" stroke="black" points="521.474,-1469 525.022,-1459.02 516.023,-1464.61 521.474,-1469"/>
<text text-anchor="middle" x="526.064" y="-1479.8" font-family="Times,serif" font-size="14.00">không</text>
</g>
<!-- are_you_working_on_production_app_without_bundler&#45;&gt;do_you_know_es2015 -->
<g id="edge19" class="edge"><title>are_you_working_on_production_app_without_bundler&#45;&gt;do_you_know_es2015</title>
<path fill="none" stroke="black" d="M842.1,-1518.39C816.73,-1504.15 788.233,-1484.18 769.564,-1459 736.399,-1414.27 749.904,-1392.23 733.564,-1339 730.602,-1329.35 727.419,-1319.1 724.313,-1309.17"/>
<polygon fill="black" stroke="black" points="727.576,-1307.88 721.245,-1299.38 720.896,-1309.97 727.576,-1307.88"/>
<text text-anchor="middle" x="787.064" y="-1394.8" font-family="Times,serif" font-size="14.00">không</text>
</g>
<!-- add_bundler -->
<g id="node15" class="node"><title>add_bundler</title>
<polygon fill="none" stroke="black" points="1117.97,-1445 813.155,-1445 813.155,-1353 1117.97,-1353 1117.97,-1445"/>
<text text-anchor="middle" x="965.564" y="-1429.8" font-family="Times,serif" font-size="14.00">Hãy thêm vào một trình đóng gói như</text>
<text text-anchor="middle" x="965.564" y="-1415.8" font-family="Times,serif" font-size="14.00"> &#160;&#160;&#160;một bước để giữ các dependencies dễ quản lí</text>
<text text-anchor="middle" x="965.564" y="-1401.8" font-family="Times,serif" font-size="14.00"> &#160;&#160;&#160;và xử lý code Javascript một cách hiệu quả.</text>
<text text-anchor="middle" x="965.564" y="-1387.8" font-family="Times,serif" font-size="14.00"> &#160;&#160;&#160;Hãy sử dụng công cụ Google Page Speed để đo</text>
<text text-anchor="middle" x="965.564" y="-1373.8" font-family="Times,serif" font-size="14.00"> &#160;&#160;&#160;xem bạn đang làm tốt tới mức nào. Nên nhớ hãy</text>
<text text-anchor="middle" x="965.564" y="-1359.8" font-family="Times,serif" font-size="14.00"> &#160;&#160;&#160;thu gọn và đóng gói môi trường của mã nguồn.</text>
</g>
<!-- are_you_working_on_production_app_without_bundler&#45;&gt;add_bundler -->
<g id="edge18" class="edge"><title>are_you_working_on_production_app_without_bundler&#45;&gt;add_bundler</title>
<path fill="none" stroke="black" d="M912.994,-1511.32C920.941,-1494.49 930.841,-1473.53 939.9,-1454.35"/>
<polygon fill="black" stroke="black" points="943.162,-1455.64 944.267,-1445.1 936.832,-1452.65 943.162,-1455.64"/>
<text text-anchor="middle" x="933.171" y="-1479.8" font-family="Times,serif" font-size="14.00">có</text>
</g>
<!-- use_es5 -->
<g id="node16" class="node"><title>use_es5</title>
<polygon fill="none" stroke="black" points="952.029,-1034 403.099,-1034 403.099,-914 952.029,-914 952.029,-1034"/>
<text text-anchor="middle" x="677.564" y="-1018.8" font-family="Times,serif" font-size="14.00">Không nên sử dụng ES2015 vội. Bạn không</text>
<text text-anchor="middle" x="677.564" y="-1004.8" font-family="Times,serif" font-size="14.00"> &#160;&#160;&#160;cần biết tới nó để học React. Các thư viện hỗ</text>
<text text-anchor="middle" x="677.564" y="-990.8" font-family="Times,serif" font-size="14.00"> &#160;&#160;&#160;trợ thường sử dụng cú pháp ES2015 trong tài liệu</text>
<text text-anchor="middle" x="677.564" y="-976.8" font-family="Times,serif" font-size="14.00"> &#160;&#160;&#160;nhưng bạn thực sự không cần tới các thư viện</text>
<text text-anchor="middle" x="677.564" y="-962.8" font-family="Times,serif" font-size="14.00"> &#160;&#160;&#160;ngoài đó khi bạn đang học React. Khi nào bạn cảm</text>
<text text-anchor="middle" x="677.564" y="-948.8" font-family="Times,serif" font-size="14.00"> &#160;&#160;&#160;thấy cần mở rộng hiểu biết về Javascript, https://leanpub.com/understandinges6/read là một</text>
<text text-anchor="middle" x="677.564" y="-934.8" font-family="Times,serif" font-size="14.00"> &#160;&#160;&#160;hướng dẫn tuyệt vời. Sử dụng http://babeljs.io/repl để kiểm chứng hiểu biết</text>
<text text-anchor="middle" x="677.564" y="-920.8" font-family="Times,serif" font-size="14.00"> &#160;&#160;&#160;của bạn.</text>
</g>
<!-- do_you_know_es2015&#45;&gt;use_es5 -->
<g id="edge22" class="edge"><title>do_you_know_es2015&#45;&gt;use_es5</title>
<path fill="none" stroke="black" d="M701.513,-1202.92C696.897,-1159 690.02,-1093.55 684.817,-1044.03"/>
<polygon fill="black" stroke="black" points="688.293,-1043.62 683.767,-1034.04 681.332,-1044.35 688.293,-1043.62"/>
<text text-anchor="middle" x="717.064" y="-1172.8" font-family="Times,serif" font-size="14.00">không</text>
</g>
<!-- are_you_using_dangerous_features -->
<g id="node17" class="node"><title>are_you_using_dangerous_features</title>
<polygon fill="none" stroke="black" points="994.564,-1152 705.162,-1102 994.564,-1052 1283.97,-1102 994.564,-1152"/>
<text text-anchor="middle" x="994.564" y="-1111.8" font-family="Times,serif" font-size="14.00">Bạn có đang sử dụng tính năng</text>
<text text-anchor="middle" x="994.564" y="-1097.8" font-family="Times,serif" font-size="14.00"> &#160;&#160;&#160;thử nghiệm mà không có trong ES2015 không</text>
<text text-anchor="middle" x="994.564" y="-1083.8" font-family="Times,serif" font-size="14.00"> &#160;&#160;&#160;(ví dụ: decorators)?</text>
</g>
<!-- do_you_know_es2015&#45;&gt;are_you_using_dangerous_features -->
<g id="edge23" class="edge"><title>do_you_know_es2015&#45;&gt;are_you_using_dangerous_features</title>
<path fill="none" stroke="black" d="M774.816,-1215.93C816.599,-1194.45 870.277,-1166.87 914.122,-1144.34"/>
<polygon fill="black" stroke="black" points="915.742,-1147.44 923.036,-1139.76 912.542,-1141.22 915.742,-1147.44"/>
<text text-anchor="middle" x="865.171" y="-1172.8" font-family="Times,serif" font-size="14.00">có</text>
</g>
<!-- remove_bundler&#45;&gt;do_you_know_es2015 -->
<g id="edge21" class="edge"><title>remove_bundler&#45;&gt;do_you_know_es2015</title>
<path fill="none" stroke="black" d="M627.454,-1338.6C638.719,-1326.41 650.456,-1313.71 661.335,-1301.94"/>
<polygon fill="black" stroke="black" points="664.129,-1304.08 668.346,-1294.36 658.988,-1299.32 664.129,-1304.08"/>
</g>
<!-- add_bundler&#45;&gt;do_you_know_es2015 -->
<g id="edge20" class="edge"><title>add_bundler&#45;&gt;do_you_know_es2015</title>
<path fill="none" stroke="black" d="M885.034,-1352.92C851.372,-1334.07 812.533,-1312.33 779.699,-1293.94"/>
<polygon fill="black" stroke="black" points="781.043,-1290.69 770.607,-1288.85 777.623,-1296.79 781.043,-1290.69"/>
</g>
<!-- do_you_update_packages_asap -->
<g id="node18" class="node"><title>do_you_update_packages_asap</title>
<polygon fill="none" stroke="black" points="1015.56,-645 754.49,-609 1015.56,-573 1276.64,-609 1015.56,-645"/>
<text text-anchor="middle" x="1015.56" y="-611.8" font-family="Times,serif" font-size="14.00">Bạn có cập nhật các version major</text>
<text text-anchor="middle" x="1015.56" y="-597.8" font-family="Times,serif" font-size="14.00"> &#160;&#160;&#160;của dependencies mỗi khi chúng release?</text>
</g>
<!-- use_es5&#45;&gt;do_you_update_packages_asap -->
<g id="edge24" class="edge"><title>use_es5&#45;&gt;do_you_update_packages_asap</title>
<path fill="none" stroke="black" d="M725.597,-913.858C778.685,-849.715 867.918,-745.454 952.564,-663 958.179,-657.53 964.28,-651.972 970.4,-646.613"/>
<polygon fill="black" stroke="black" points="972.837,-649.134 978.128,-639.955 968.268,-643.831 972.837,-649.134"/>
</g>
<!-- are_you_using_dangerous_features&#45;&gt;do_you_update_packages_asap -->
<g id="edge26" class="edge"><title>are_you_using_dangerous_features&#45;&gt;do_you_update_packages_asap</title>
<path fill="none" stroke="black" d="M989.608,-1052.63C983.792,-987.715 976.069,-868.908 985.564,-768 989.234,-728.996 997.894,-685.282 1004.97,-653.739"/>
<polygon fill="black" stroke="black" points="1008.39,-654.475 1007.2,-643.947 1001.57,-652.918 1008.39,-654.475"/>
<text text-anchor="middle" x="1006.06" y="-738.8" font-family="Times,serif" font-size="14.00">không</text>
</g>
<!-- can_you_spend_days_on_your_tooling -->
<g id="node19" class="node"><title>can_you_spend_days_on_your_tooling</title>
<polygon fill="none" stroke="black" points="1297.56,-896 994.509,-832 1297.56,-768 1600.62,-832 1297.56,-896"/>
<text text-anchor="middle" x="1297.56" y="-848.8" font-family="Times,serif" font-size="14.00">Bạn có thể dành nhiều ngày trong</text>
<text text-anchor="middle" x="1297.56" y="-834.8" font-family="Times,serif" font-size="14.00"> &#160;&#160;&#160;việc chỉnh sửa công cụ của bạn vào mỗi vài tuần</text>
<text text-anchor="middle" x="1297.56" y="-820.8" font-family="Times,serif" font-size="14.00"> &#160;&#160;&#160;vì lí do lỗi, không tương thích hay những</text>
<text text-anchor="middle" x="1297.56" y="-806.8" font-family="Times,serif" font-size="14.00"> &#160;&#160;&#160;thay đổi về tiêu chuẩn?</text>
</g>
<!-- are_you_using_dangerous_features&#45;&gt;can_you_spend_days_on_your_tooling -->
<g id="edge25" class="edge"><title>are_you_using_dangerous_features&#45;&gt;can_you_spend_days_on_your_tooling</title>
<path fill="none" stroke="black" d="M1040.91,-1060C1092,-1014.82 1174.57,-941.791 1232.21,-890.805"/>
<polygon fill="black" stroke="black" points="1234.65,-893.322 1239.82,-884.075 1230.01,-888.079 1234.65,-893.322"/>
<text text-anchor="middle" x="1205.17" y="-969.8" font-family="Times,serif" font-size="14.00">có</text>
</g>
<!-- give_it_two_months -->
<g id="node21" class="node"><title>give_it_two_months</title>
<polygon fill="none" stroke="black" points="1079.41,-523 749.719,-523 749.719,-361 1079.41,-361 1079.41,-523"/>
<text text-anchor="middle" x="914.564" y="-507.8" font-family="Times,serif" font-size="14.00">Trừ khi với React là thư viện được test</text>
<text text-anchor="middle" x="914.564" y="-493.8" font-family="Times,serif" font-size="14.00"> &#160;&#160;&#160;rất kĩ càng trước khi release, hãy quan tâm tới</text>
<text text-anchor="middle" x="914.564" y="-479.8" font-family="Times,serif" font-size="14.00"> &#160;&#160;&#160;chuyện giảm tiến độ cập nhật các packages. Bạn</text>
<text text-anchor="middle" x="914.564" y="-465.8" font-family="Times,serif" font-size="14.00"> &#160;&#160;&#160;có thể thử sử dụng các version mới của dependencies</text>
<text text-anchor="middle" x="914.564" y="-451.8" font-family="Times,serif" font-size="14.00"> &#160;&#160;&#160;nhưng tốt nhất là nên giữ chúng ở một branch</text>
<text text-anchor="middle" x="914.564" y="-437.8" font-family="Times,serif" font-size="14.00"> &#160;&#160;&#160;trong vài tháng để chờ cộng đồng tìm và sửa</text>
<text text-anchor="middle" x="914.564" y="-423.8" font-family="Times,serif" font-size="14.00"> &#160;&#160;&#160;các vấn đề hay gặp phải. Không nên quyết định</text>
<text text-anchor="middle" x="914.564" y="-409.8" font-family="Times,serif" font-size="14.00"> &#160;&#160;&#160;dựa vào việc sự thiếu sót. Khi đọc các tài liệu</text>
<text text-anchor="middle" x="914.564" y="-395.8" font-family="Times,serif" font-size="14.00"> &#160;&#160;&#160;cũ hơn, đừng quên kiểm tra các tag releases trên</text>
<text text-anchor="middle" x="914.564" y="-381.8" font-family="Times,serif" font-size="14.00"> &#160;&#160;&#160;Github, ví dụ:</text>
<text text-anchor="middle" x="914.564" y="-367.8" font-family="Times,serif" font-size="14.00"> &#160;&#160;&#160;https://github.com/reactjs/react&#45;router/tree/0.13.x/doc</text>
</g>
<!-- do_you_update_packages_asap&#45;&gt;give_it_two_months -->
<g id="edge30" class="edge"><title>do_you_update_packages_asap&#45;&gt;give_it_two_months</title>
<path fill="none" stroke="black" d="M995.61,-575.401C987.8,-562.643 978.429,-547.335 968.876,-531.727"/>
<polygon fill="black" stroke="black" points="971.764,-529.742 963.558,-523.04 965.794,-533.396 971.764,-529.742"/>
<text text-anchor="middle" x="989.171" y="-543.8" font-family="Times,serif" font-size="14.00">có</text>
</g>
<!-- consider_updating_react -->
<g id="node22" class="node"><title>consider_updating_react</title>
<polygon fill="none" stroke="black" points="1471.24,-495 1097.89,-495 1097.89,-389 1471.24,-389 1471.24,-495"/>
<text text-anchor="middle" x="1284.56" y="-479.8" font-family="Times,serif" font-size="14.00"> Như thế này là tốt. Tuy nhiên, chúng tôi</text>
<text text-anchor="middle" x="1284.56" y="-465.8" font-family="Times,serif" font-size="14.00"> &#160;&#160;&#160;khuyên bạn nên thử (trên một branch khác) version</text>
<text text-anchor="middle" x="1284.56" y="-451.8" font-family="Times,serif" font-size="14.00"> &#160;&#160;&#160;mới của React mỗi khi chúng được phát hành. Không</text>
<text text-anchor="middle" x="1284.56" y="-437.8" font-family="Times,serif" font-size="14.00"> &#160;&#160;&#160;giống như các thư viện cộng đồng, chúng được test</text>
<text text-anchor="middle" x="1284.56" y="-423.8" font-family="Times,serif" font-size="14.00"> &#160;&#160;&#160;rất kĩ càng bởi Facebook. Hãy để mắt tới các ghi</text>
<text text-anchor="middle" x="1284.56" y="-409.8" font-family="Times,serif" font-size="14.00"> &#160;&#160;&#160;chú trong release vì chúng liên kết tới các phần</text>
<text text-anchor="middle" x="1284.56" y="-395.8" font-family="Times,serif" font-size="14.00"> &#160;&#160;&#160;mã nguồn hỗ trợ tự động cập nhật nâng cấp version cho bạn.</text>
</g>
<!-- do_you_update_packages_asap&#45;&gt;consider_updating_react -->
<g id="edge31" class="edge"><title>do_you_update_packages_asap&#45;&gt;consider_updating_react</title>
<path fill="none" stroke="black" d="M1062.42,-579.259C1097.84,-557.532 1147.63,-526.995 1191.09,-500.335"/>
<polygon fill="black" stroke="black" points="1193,-503.27 1199.69,-495.058 1189.34,-497.304 1193,-503.27"/>
<text text-anchor="middle" x="1135.06" y="-543.8" font-family="Times,serif" font-size="14.00">không</text>
</g>
<!-- can_you_spend_days_on_your_tooling&#45;&gt;do_you_update_packages_asap -->
<g id="edge27" class="edge"><title>can_you_spend_days_on_your_tooling&#45;&gt;do_you_update_packages_asap</title>
<path fill="none" stroke="black" d="M1195.82,-789.406C1158.71,-771.084 1118.11,-747.053 1086.35,-718 1065.94,-699.331 1048.76,-673.572 1036.44,-651.894"/>
<polygon fill="black" stroke="black" points="1039.36,-649.944 1031.46,-642.885 1033.24,-653.33 1039.36,-649.944"/>
<text text-anchor="middle" x="1092.17" y="-695.8" font-family="Times,serif" font-size="14.00">có</text>
</g>
<!-- stick_to_es2015 -->
<g id="node20" class="node"><title>stick_to_es2015</title>
<polygon fill="none" stroke="black" points="1410.5,-718 1108.63,-718 1108.63,-682 1410.5,-682 1410.5,-718"/>
<text text-anchor="middle" x="1259.56" y="-702.8" font-family="Times,serif" font-size="14.00">Giữ lại chỉ sử dụng các tính năng</text>
<text text-anchor="middle" x="1259.56" y="-688.8" font-family="Times,serif" font-size="14.00"> &#160;&#160;&#160;trong ES2015, JSX và toán tử spread với object.</text>
</g>
<!-- can_you_spend_days_on_your_tooling&#45;&gt;stick_to_es2015 -->
<g id="edge28" class="edge"><title>can_you_spend_days_on_your_tooling&#45;&gt;stick_to_es2015</title>
<path fill="none" stroke="black" d="M1280.12,-771.327C1275.7,-756.204 1271.17,-740.695 1267.49,-728.102"/>
<polygon fill="black" stroke="black" points="1270.78,-726.898 1264.62,-718.282 1264.06,-728.862 1270.78,-726.898"/>
<text text-anchor="middle" x="1290.06" y="-738.8" font-family="Times,serif" font-size="14.00">không</text>
</g>
<!-- stick_to_es2015&#45;&gt;do_you_update_packages_asap -->
<g id="edge29" class="edge"><title>stick_to_es2015&#45;&gt;do_you_update_packages_asap</title>
<path fill="none" stroke="black" d="M1212.81,-681.945C1179.51,-669.801 1133.95,-653.182 1095,-638.976"/>
<polygon fill="black" stroke="black" points="1095.85,-635.559 1085.26,-635.421 1093.45,-642.136 1095.85,-635.559"/>
</g>
<!-- are_you_still_sad -->
<g id="node23" class="node"><title>are_you_still_sad</title>
<polygon fill="none" stroke="black" points="1141.56,-324 976.599,-306 1141.56,-288 1306.53,-306 1141.56,-324"/>
<text text-anchor="middle" x="1141.56" y="-301.8" font-family="Times,serif" font-size="14.00">Bạn vẫn còn thấy buồn chán?</text>
</g>
<!-- give_it_two_months&#45;&gt;are_you_still_sad -->
<g id="edge32" class="edge"><title>give_it_two_months&#45;&gt;are_you_still_sad</title>
<path fill="none" stroke="black" d="M1050.22,-360.924C1071.74,-348.215 1092.17,-336.159 1108.22,-326.683"/>
<polygon fill="black" stroke="black" points="1110.31,-329.513 1117.14,-321.416 1106.75,-323.485 1110.31,-329.513"/>
</g>
<!-- consider_updating_react&#45;&gt;are_you_still_sad -->
<g id="edge33" class="edge"><title>consider_updating_react&#45;&gt;are_you_still_sad</title>
<path fill="none" stroke="black" d="M1228.87,-388.808C1206.83,-368.161 1182.69,-345.539 1165.39,-329.327"/>
<polygon fill="black" stroke="black" points="1167.65,-326.643 1157.95,-322.359 1162.86,-331.751 1167.65,-326.643"/>
</g>
<!-- rant -->
<g id="node24" class="node"><title>rant</title>
<polygon fill="none" stroke="black" points="1154.77,-238 838.357,-238 838.357,-160 1154.77,-160 1154.77,-238"/>
<text text-anchor="middle" x="996.564" y="-222.8" font-family="Times,serif" font-size="14.00">Hãy viết một bài blog chi tiết về</text>
<text text-anchor="middle" x="996.564" y="-208.8" font-family="Times,serif" font-size="14.00"> &#160;&#160;&#160;vấn đề bạn gặp phải. Kiềm chế cảm xúc chủ quan.</text>
<text text-anchor="middle" x="996.564" y="-194.8" font-family="Times,serif" font-size="14.00"> &#160;&#160;&#160;Hãy lịch sự. Giúp đỡ cộng đồng tìm ra hướng</text>
<text text-anchor="middle" x="996.564" y="-180.8" font-family="Times,serif" font-size="14.00"> &#160;&#160;&#160;giải quyết. Cũng nên quan tâm tới stack khác</text>
<text text-anchor="middle" x="996.564" y="-166.8" font-family="Times,serif" font-size="14.00"> &#160;&#160;&#160;có thể hợp hơn với bạn (ví dụ: Ember).</text>
</g>
<!-- are_you_still_sad&#45;&gt;rant -->
<g id="edge34" class="edge"><title>are_you_still_sad&#45;&gt;rant</title>
<path fill="none" stroke="black" d="M1121.1,-290.179C1104.48,-278.146 1080.16,-260.532 1057.4,-244.056"/>
<polygon fill="black" stroke="black" points="1059.26,-241.081 1049.11,-238.051 1055.16,-246.751 1059.26,-241.081"/>
<text text-anchor="middle" x="1096.17" y="-258.8" font-family="Times,serif" font-size="14.00">có</text>
</g>
<!-- happy -->
<g id="node25" class="node"><title>happy</title>
<polygon fill="none" stroke="black" points="1263.87,-123 1007.25,-123 1007.25,-73 1263.87,-73 1263.87,-123"/>
<text text-anchor="middle" x="1135.56" y="-107.8" font-family="Times,serif" font-size="14.00">React làm bạn thấy hạnh phúc!</text>
<text text-anchor="middle" x="1135.56" y="-93.8" font-family="Times,serif" font-size="14.00"> &#160;&#160;&#160;Hoặc, ít nhất thì nó cũng không làm bạn</text>
<text text-anchor="middle" x="1135.56" y="-79.8" font-family="Times,serif" font-size="14.00"> &#160;&#160;&#160;cảm thấy buồn chán nữa.</text>
</g>
<!-- are_you_still_sad&#45;&gt;happy -->
<g id="edge35" class="edge"><title>are_you_still_sad&#45;&gt;happy</title>
<path fill="none" stroke="black" d="M1148.59,-288.569C1153.89,-275.225 1160.72,-255.771 1163.56,-238 1169.04,-203.769 1170.97,-193.867 1163.56,-160 1161.52,-150.637 1157.9,-140.993 1153.92,-132.216"/>
<polygon fill="black" stroke="black" points="1157.02,-130.581 1149.53,-123.086 1150.71,-133.615 1157.02,-130.581"/>
<text text-anchor="middle" x="1185.06" y="-194.8" font-family="Times,serif" font-size="14.00">không</text>
</g>
<!-- rant&#45;&gt;happy -->
<g id="edge36" class="edge"><title>rant&#45;&gt;happy</title>
<path fill="none" stroke="black" d="M1050.3,-159.724C1064.6,-149.541 1079.84,-138.688 1093.42,-129.017"/>
<polygon fill="black" stroke="black" points="1095.52,-131.816 1101.64,-123.164 1091.46,-126.114 1095.52,-131.816"/>
</g>
<!-- share -->
<g id="node26" class="node"><title>share</title>
<path fill="none" stroke="black" d="M1310.72,-36C1310.72,-36 960.41,-36 960.41,-36 954.41,-36 948.41,-30 948.41,-24 948.41,-24 948.41,-12 948.41,-12 948.41,-6 954.41,-0 960.41,-0 960.41,-0 1310.72,-0 1310.72,-0 1316.72,-0 1322.72,-6 1322.72,-12 1322.72,-12 1322.72,-24 1322.72,-24 1322.72,-30 1316.72,-36 1310.72,-36"/>
<text text-anchor="middle" x="1135.56" y="-20.8" font-family="Times,serif" font-size="14.00">Hãy chia sẻ sơ đồ này: http://bit.ly/react&#45;makes&#45;you&#45;sad.</text>
<text text-anchor="middle" x="1135.56" y="-6.8" font-family="Times,serif" font-size="14.00"> &#160;&#160;&#160;Cảm hứng dựa trên: https://github.com/petehunt/react&#45;howto.</text>
</g>
<!-- happy&#45;&gt;share -->
<g id="edge37" class="edge"><title>happy&#45;&gt;share</title>
<path fill="none" stroke="black" d="M1135.56,-72.7479C1135.56,-64.4466 1135.56,-55.0998 1135.56,-46.5568"/>
<polygon fill="black" stroke="black" points="1139.06,-46.3046 1135.56,-36.3047 1132.06,-46.3047 1139.06,-46.3046"/>
</g>
</g>
</svg>
